<?xml version="1.0" encoding="iso-8859-1"?>
<!-- Generator: Adobe Illustrator 19.0.0, SVG Export Plug-In . SVG Version: 6.00 Build 0)  -->
<svg xmlns="http://www.w3.org/2000/svg" xmlns:xlink="http://www.w3.org/1999/xlink" version="1.1" id="Layer_1" x="0px" y="0px" viewBox="0 0 512.001 512.001" style="enable-background:new 0 0 512.001 512.001;" xml:space="preserve" width="512px" height="512px">
<g>
	<g>
		<path d="M434.882,251.157c14.592-10.108,24.175-26.96,24.175-46.016v-41.702c0-28.923-22.06-52.791-50.239-55.662    c-0.476-0.049-0.959-0.073-1.438-0.11c-1.413-0.107-2.835-0.18-4.275-0.18c-1.282,0-2.549,0.059-3.809,0.144    c-1.037,0.07-2.066,0.17-3.087,0.296c-27.607,3.411-49.053,26.996-49.053,55.511v41.702c0,19.056,9.583,35.908,24.174,46.016    c-24.443,7.722-45.481,23.629-59.379,44.094v-12.427c0-30.851-25.1-55.951-55.951-55.951c-0.006,0-0.012,0-0.018,0    s-0.012,0-0.018,0c-30.848,0-55.945,25.097-55.945,55.945v12.388c-13.899-20.444-34.923-36.333-59.348-44.05    c14.592-10.108,24.175-26.96,24.175-46.016v-20.865v-20.837v-0.006c0-30.848-25.097-55.945-55.945-55.945    c-0.001,0-0.002,0-0.003,0c-0.001,0-0.002,0-0.002,0c-30.852,0-55.952,25.1-55.952,55.951v41.703    c0,19.056,9.583,35.908,24.174,46.016C33.022,265.088,0,305.652,0,351.569v32.557c0,4.136,3.353,7.489,7.489,7.489h36.982    c4.136,0,7.489-3.353,7.489-7.489s-3.353-7.489-7.489-7.489H14.978v-25.068c0-23.533,10.053-46.045,28.307-63.388    c10.641-10.11,23.468-17.69,37.162-22.247l8.894,17.279l-12.882,55.92c-0.606,2.63,0.251,5.383,2.242,7.205l25.138,23.007    c1.431,1.309,3.243,1.964,5.056,1.964s3.625-0.655,5.057-1.964l25.138-23.007c1.991-1.822,2.848-4.575,2.242-7.205l-12.882-55.92    l8.894-17.279c13.695,4.558,26.522,12.137,37.163,22.247c13.398,12.73,22.371,28.246,26.2,44.906    c0.239,1.549,0.554,3.071,0.918,4.575c0.783,4.574,1.188,9.219,1.188,13.906v25.068H69.434c-4.136,0-7.489,3.353-7.489,7.489    s3.353,7.489,7.489,7.489h116.329c-23.493,19.578-38.657,48.23-38.657,79.341v32.557c0,4.136,3.353,7.489,7.489,7.489h33.231    c4.136,0,7.489-3.353,7.489-7.489c0-4.136-3.353-7.489-7.489-7.489h-25.742v-25.068c0-23.533,10.053-46.045,28.307-63.387    c10.641-10.11,23.468-17.69,37.163-22.247l8.894,17.279l-12.882,55.92c-0.606,2.63,0.251,5.383,2.242,7.205l25.138,23.007    c1.431,1.309,3.243,1.964,5.055,1.964s3.625-0.655,5.057-1.964l25.137-23.007c1.991-1.822,2.848-4.575,2.242-7.205l-12.881-55.919    l8.894-17.279c13.695,4.558,26.521,12.137,37.162,22.247c18.254,17.343,28.307,39.855,28.307,63.387v25.068H212.789    c-4.136,0-7.489,3.353-7.489,7.489c0,4.136,3.353,7.489,7.489,7.489h144.617c4.137,0,7.489-3.353,7.489-7.489v-32.557    c0-31.112-15.164-59.763-38.657-79.341h25.65c4.137,0,7.489-3.353,7.489-7.489s-3.352-7.489-7.489-7.489h-42.697v-25.068    c0-4.687,0.405-9.332,1.188-13.906c0.363-1.505,0.679-3.029,0.918-4.577c3.829-16.659,12.802-32.175,26.201-44.905    c10.64-10.11,23.467-17.689,37.162-22.247l8.894,17.279l-12.882,55.919c-0.606,2.63,0.251,5.383,2.242,7.205l25.138,23.007    c1.431,1.309,3.243,1.964,5.057,1.964c1.812,0,3.626-0.655,5.055-1.964l25.138-23.007c1.991-1.822,2.848-4.575,2.242-7.205    l-12.882-55.919l8.894-17.28c13.695,4.558,26.522,12.137,37.163,22.247c18.254,17.343,28.307,39.855,28.307,63.388v25.068H376.85    c-4.136,0-7.489,3.353-7.489,7.489s3.353,7.489,7.489,7.489h127.662c4.137,0,7.489-3.353,7.489-7.489v-32.556    C512,305.652,478.979,265.089,434.882,251.157z M67.931,163.433L67.931,163.433c0-22.589,18.377-40.965,40.965-40.967    c22.592,0.001,40.97,18.382,40.97,40.973v12.429c-17.224-4.274-24.318-22.009-24.639-22.837c-1.038-2.742-3.582-4.624-6.507-4.819    c-2.927-0.194-5.695,1.336-7.087,3.916c-0.124,0.229-11.907,21.378-43.703,24.325V163.433z M108.894,353.669l-16.859-15.43    l11.178-48.527h11.361l11.179,48.527L108.894,353.669z M95.381,262.22c1.44-0.236,2.885-0.434,4.333-0.602    c0.212-0.024,0.423-0.045,0.634-0.068c1.151-0.126,2.305-0.226,3.458-0.308c0.33-0.023,0.659-0.05,0.989-0.069    c0.944-0.057,1.888-0.085,2.833-0.112c0.422,0.01,0.843,0.032,1.267,0.032c0.425,0,0.845-0.023,1.267-0.032    c0.944,0.027,1.886,0.056,2.829,0.112c0.333,0.02,0.666,0.047,0.999,0.07c1.148,0.082,2.296,0.182,3.442,0.307    c0.217,0.023,0.433,0.044,0.649,0.069c1.446,0.168,2.889,0.366,4.327,0.602l-6.439,12.513h-14.145L95.381,262.22z     M110.549,246.074c-0.518-0.014-1.034-0.034-1.554-0.041c-0.068-0.001-0.137-0.001-0.205,0c-0.519,0.007-1.036,0.027-1.555,0.041    C85.411,245.2,67.92,227.179,67.92,205.142v-13.658c25.346-1.937,40.932-13.48,49.242-22.219    c5.819,8.504,16.238,19.27,32.704,21.901v13.976C149.866,227.18,132.376,245.2,110.549,246.074z M215.027,282.824    c0-22.587,18.371-40.962,40.954-40.972c22.582,0.011,40.95,18.384,40.95,40.967v12.435c-17.224-4.274-24.318-22.009-24.638-22.837    c-1.039-2.742-3.583-4.624-6.507-4.819c-2.921-0.202-5.696,1.336-7.087,3.916c-0.124,0.23-11.9,21.363-43.671,24.321V282.824z     M217.788,372.8v-7.457c2.013,1.885,4.163,3.626,6.436,5.2C222.05,371.23,219.905,371.986,217.788,372.8z M256,473.056    l-16.859-15.43l11.18-48.527h11.36l11.178,48.527L256,473.056z M242.486,381.606c1.439-0.236,2.882-0.434,4.327-0.602    c0.217-0.025,0.433-0.046,0.65-0.069c1.145-0.125,2.293-0.225,3.441-0.307c0.333-0.023,0.666-0.05,0.999-0.07    c0.943-0.057,1.886-0.085,2.829-0.112c0.422,0.009,0.843,0.032,1.267,0.032c0.425,0,0.845-0.023,1.267-0.032    c0.944,0.027,1.888,0.055,2.831,0.112c0.331,0.02,0.661,0.046,0.993,0.07c1.15,0.082,2.301,0.182,3.448,0.307    c0.216,0.023,0.431,0.044,0.647,0.069c1.446,0.168,2.889,0.366,4.328,0.602l-6.44,12.514h-14.144L242.486,381.606z M294.212,372.8    c-2.118-0.814-4.263-1.57-6.437-2.257c2.274-1.575,4.423-3.315,6.437-5.2V372.8z M296.972,324.527c0,2.102-0.16,4.168-0.467,6.186    c-0.262,1.182-0.496,2.372-0.715,3.568c-4.261,17.381-19.636,30.438-38.135,31.178c-0.518-0.014-1.034-0.034-1.554-0.041    c-0.068-0.001-0.137-0.001-0.205,0c-0.519,0.007-1.036,0.026-1.555,0.041c-18.498-0.74-33.873-13.798-38.135-31.179    c-0.219-1.194-0.453-2.384-0.715-3.567c-0.307-2.018-0.467-4.084-0.467-6.186v-13.661c25.322-1.946,40.894-13.482,49.201-22.216    c5.823,8.511,16.255,19.288,32.746,21.908V324.527z M362.136,163.433h0.002c0-20.472,15.094-37.484,34.737-40.494    c0.474-0.073,0.955-0.127,1.434-0.183c0.206-0.024,0.407-0.057,0.614-0.078c0.31-0.032,0.625-0.047,0.937-0.072    c1.072-0.085,2.153-0.141,3.246-0.141s2.174,0.056,3.246,0.141c0.313,0.025,0.627,0.04,0.937,0.072    c0.279,0.028,0.552,0.072,0.83,0.106c0.406,0.05,0.815,0.094,1.218,0.155c19.643,3.01,34.737,20.022,34.737,40.494v12.435    c-17.224-4.274-24.317-22.009-24.639-22.837c-1.039-2.742-3.583-4.624-6.507-4.819c-2.921-0.2-5.696,1.336-7.088,3.916    c-0.124,0.229-11.907,21.378-43.703,24.325V163.433z M403.106,353.669l-16.859-15.43l11.178-48.527h11.36l11.178,48.527    L403.106,353.669z M389.593,262.22c1.439-0.236,2.882-0.434,4.328-0.602c0.216-0.025,0.431-0.046,0.647-0.069    c1.148-0.125,2.298-0.225,3.448-0.307c0.331-0.023,0.661-0.05,0.992-0.07c0.944-0.057,1.887-0.085,2.832-0.112    c0.422,0.01,0.843,0.032,1.267,0.032c0.425,0,0.845-0.023,1.267-0.032c0.945,0.027,1.889,0.056,2.833,0.112    c0.329,0.02,0.659,0.046,0.989,0.069c1.154,0.082,2.308,0.182,3.46,0.308c0.211,0.023,0.421,0.044,0.632,0.068    c1.448,0.168,2.893,0.367,4.333,0.602l-6.442,12.515h-14.143L389.593,262.22z M404.763,246.073    c-0.518-0.014-1.034-0.034-1.554-0.041c-0.068-0.001-0.137-0.001-0.205,0c-0.519,0.007-1.036,0.027-1.554,0.041    c-21.828-0.873-39.317-18.894-39.317-40.931v-13.658c25.344-1.938,40.927-13.48,49.236-22.218    c5.819,8.505,16.24,19.273,32.71,21.902v13.974C444.08,227.179,426.589,245.2,404.763,246.073z" fill="#FFFFFF"/>
	</g>
</g>
<g>
	<g>
		<path d="M310.345,19.947C296.719,7.551,277.93,0.999,256.012,0.999c-21.919,0-40.706,6.551-54.333,18.947    c-14.96,13.608-22.867,33.752-22.867,58.253c0,2.098,0.485,51.161,41.976,97.479v21.238h-0.001    c0,9.815,7.986,17.802,17.802,17.802h34.749c9.815,0,17.802-7.986,17.802-17.802v-21.13    c41.586-46.349,42.073-95.486,42.073-97.586C333.212,53.698,325.304,33.555,310.345,19.947z M276.163,196.915h-0.001    c0,1.557-1.266,2.824-2.824,2.824H238.59c-1.558,0-2.824-1.267-2.824-2.824v-16.597h8.61c0.007,0,0.014,0.001,0.021,0.001    c0.005,0,0.011-0.001,0.016-0.001h31.75V196.915z M244.617,112.612h22.789l-6.42,52.728h-9.949L244.617,112.612z M280.388,165.34    h-4.312l7.221-59.312c0.259-2.128-0.406-4.265-1.828-5.87c-1.421-1.605-3.462-2.523-5.606-2.523h-39.701    c-2.144,0-4.185,0.919-5.607,2.523c-1.421,1.605-2.087,3.742-1.827,5.87l7.222,59.311h-4.313    c-37.197-41.804-37.845-86.701-37.847-87.141c-0.001-38.96,23.26-62.221,62.221-62.221c38.962,0,62.223,23.261,62.223,62.205    C318.233,78.64,317.585,123.536,280.388,165.34z" fill="#FFFFFF"/>
	</g>
</g>
<g>
</g>
<g>
</g>
<g>
</g>
<g>
</g>
<g>
</g>
<g>
</g>
<g>
</g>
<g>
</g>
<g>
</g>
<g>
</g>
<g>
</g>
<g>
</g>
<g>
</g>
<g>
</g>
<g>
</g>
</svg>
